<?xml version="1.0" encoding="UTF-8" standalone="no"?>
<!-- Created with Inkscape (http://www.inkscape.org/) -->

<svg
   version="1.1"
   id="svg1"
   width="200"
   height="185"
   viewBox="0 0 200 185"
   sodipodi:docname="logo.svg"
   inkscape:version="1.3.2 (091e20e, 2023-11-25, custom)"
   xmlns:inkscape="http://www.inkscape.org/namespaces/inkscape"
   xmlns:sodipodi="http://sodipodi.sourceforge.net/DTD/sodipodi-0.dtd"
   xmlns:xlink="http://www.w3.org/1999/xlink"
   xmlns="http://www.w3.org/2000/svg"
   xmlns:svg="http://www.w3.org/2000/svg">
  <defs
     id="defs1" />
  <sodipodi:namedview
     id="namedview1"
     pagecolor="#ffffff"
     bordercolor="#000000"
     borderopacity="0.25"
     inkscape:showpageshadow="2"
     inkscape:pageopacity="0.0"
     inkscape:pagecheckerboard="0"
     inkscape:deskcolor="#d1d1d1"
     showgrid="false"
     inkscape:zoom="2.5946292"
     inkscape:cx="157.44061"
     inkscape:cy="74.577131"
     inkscape:window-width="2560"
     inkscape:window-height="1494"
     inkscape:window-x="-11"
     inkscape:window-y="-11"
     inkscape:window-maximized="1"
     inkscape:current-layer="g1" />
  <g
     inkscape:groupmode="layer"
     inkscape:label="Image"
     id="g1">
    <ellipse
       id="path12"
       style="fill:#000000;stroke:#000000;stroke-width:1.9454"
       cx="131.04294"
       cy="21.887117"
       rx="0.014513954"
       ry="0.013848268" />
    <path
       style="fill:#ffffff;fill-opacity:1;stroke-width:1.94846;stroke-dasharray:none"
       id="path14"
       d="m 12.737145,81.501324 c 1.88156,-2.265742 3.83644,-4.472016 5.7973,-6.67536 1.97433,-2.298784 4.02192,-4.538308 6.19321,-6.669439 2.47066,-2.31728 5.22472,-4.348355 7.98756,-6.336711 4.28635,-2.861488 8.80177,-5.391692 13.31353,-7.91134 4.69337,-2.557647 9.40658,-5.099421 14.356,-7.186551 2.91904,-1.230934 5.26663,-2.046168 8.23525,-3.127924 4.68287,-1.612545 2.4357,-0.860025 6.73808,-2.266958 0,0 -1.81759,-1.174036 -1.81759,-1.174036 v 0 c -4.2917,1.420546 -2.049,0.662108 -6.72483,2.283919 -2.96115,1.084335 -5.32918,1.912068 -8.24158,3.142572 -4.95598,2.093901 -9.68265,4.632571 -14.38722,7.18911 -4.52312,2.522628 -9.05607,5.047102 -13.34913,7.918908 -2.77138,1.996153 -5.53604,4.032342 -8.01253,6.360289 -2.17233,2.136212 -4.22116,4.380521 -6.19644,6.684159 -1.96233,2.204396 -3.91362,4.415942 -5.8192,6.665123 z" />
    <path
       style="fill:#ffffff;fill-opacity:1;stroke-width:1.94846;stroke-dasharray:none"
       id="path15"
       d="m 72.815385,39.860525 c -0.64956,0.938143 -1.31989,1.861043 -2.05298,2.74168 -0.62132,0.888906 -1.34009,1.710289 -1.95472,2.602982 -0.6336,0.991758 -1.38189,1.89816 -1.89992,2.954051 -0.68904,1.403616 -1.22442,2.868755 -1.80882,4.313409 -0.90762,2.113022 -1.567,4.303751 -2.11611,6.522577 -0.56438,2.568304 -0.76118,5.195644 -0.80102,7.814696 0.0313,1.468499 0.15952,2.946068 0.45383,4.390048 0.19756,0.969223 0.33184,1.314761 0.62875,2.270443 0.81633,2.568233 2.14228,4.928438 3.67,7.166679 1.75343,2.335644 3.83616,4.428945 6.03819,6.380567 1.26105,1.115014 2.64502,2.08336 4.08915,2.967602 0,0 4.17484,1.544845 4.17484,1.544845 v 0 c -1.46797,-0.850421 -2.87021,-1.796819 -4.14231,-2.903116 -2.21358,-1.916549 -4.28263,-3.994279 -6.07404,-6.282018 -0.57645,-0.822532 -1.02463,-1.426824 -1.53181,-2.291767 -0.88674,-1.512317 -1.61038,-3.118348 -2.1854,-4.760266 -0.27824,-0.855367 -0.46175,-1.341823 -0.64878,-2.213378 -0.30521,-1.422344 -0.44778,-2.882419 -0.49533,-4.331131 0.0179,-2.590212 0.20699,-5.189431 0.75629,-7.730695 0.54276,-2.199343 1.18425,-4.375656 2.09484,-6.466147 0.58693,-1.433507 1.11845,-2.889835 1.81183,-4.28107 0.49784,-1.041664 1.24543,-1.924172 1.86378,-2.899727 0.61072,-0.880556 1.32162,-1.692409 1.93698,-2.570484 0.73499,-0.893794 1.40682,-1.829631 2.07766,-2.76776 z" />
    <path
       id="path16"
       style="fill:#ffffff;fill-opacity:1;stroke-width:1.94846;stroke-dasharray:none"
       d="m 61.734915,48.112644 c -1.21449,0.951098 -2.45649,1.867669 -3.60591,2.891224 -1.17582,1.116749 -2.1535,2.395936 -3.11189,3.681765 -1.3263,1.824781 -2.62517,3.66341 -3.87431,5.537494 -1.44053,2.068195 -2.87599,4.140841 -4.33331,6.198134 -1.56375,2.118401 -2.90753,4.372377 -4.07271,6.710313 -1.51436,2.916933 -2.13064,6.114133 -2.57118,9.312042 -0.21145,2.046327 -0.40192,4.106448 -0.28008,6.164734 0.063,1.063129 0.16729,1.633775 0.32285,2.683381 0.35859,2.337615 1.47432,4.413472 2.81238,6.365152 1.45402,1.893614 3.09234,3.152247 5.04127,4.249617 -0.073,-0.21312 -0.10595,-0.41392 -0.10118,-0.59754 -1.09039,-0.80123 -2.07002,-1.732413 -2.89405,-2.794734 -1.34713,-1.920006 -2.4787,-3.970507 -2.85517,-6.283494 -0.15535,-1.014514 -0.2719,-1.63394 -0.33842,-2.661112 -0.13264,-2.048754 0.0542,-4.101129 0.26063,-6.138758 0.4305,-3.177339 1.03527,-6.352862 2.54396,-9.248945 1.15868,-2.329105 2.49767,-4.572339 4.05713,-6.680624 1.45885,-2.058649 2.89258,-4.135198 4.33332,-6.205555 1.2484,-1.870446 2.55371,-3.704627 3.8782,-5.526358 0.95001,-1.274309 1.92461,-2.532851 3.09243,-3.637229 1.14823,-1.018069 2.38386,-1.936662 3.60203,-2.87638 z m -4.94014,55.230186 c -0.0199,7.3e-4 -0.0389,0.003 -0.0584,0.004 0.01,0.10278 0.0199,0.2054 0.031,0.30806 0.0179,-0.10391 0.0326,-0.20787 0.0505,-0.31176 -0.008,2.7e-4 -0.016,-3e-4 -0.0233,0 z" />
    <path
       id="path17"
       style="fill:#ffffff;fill-opacity:1;stroke-width:1.94846;stroke-dasharray:none"
       d="m 78.235725,97.586359 c -0.98261,0.628055 -1.9948,1.210874 -2.97576,1.840888 -1.17852,0.786053 -2.29989,1.651433 -3.56311,2.315943 -1.42936,0.78354 -2.95442,1.39302 -4.52781,1.86316 -1.0355,0.21698 -2.07884,0.31825 -3.12356,0.2598 0.14758,0.33855 0.25383,0.70401 0.33065,1.1023 0.0428,0.008 0.0855,0.0182 0.12826,0.026 1.51389,0.2823 3.01639,0.1686 4.50446,-0.17073 1.58463,-0.49882 3.12554,-1.11222 4.56671,-1.9151 1.26716,-0.66961 2.3884,-1.54151 3.57478,-2.32709 0.98197,-0.626713 1.9955,-1.211163 2.97575,-1.840881 z" />
    <path
       style="fill:#ffffff;fill-opacity:1;stroke-width:1.94846;stroke-dasharray:none"
       id="path18"
       d="m 79.693075,96.667763 c 0.9458,1.062352 1.93778,2.08967 2.96629,3.079494 1.00427,0.851433 2.07367,1.636483 3.16986,2.377543 2.13111,1.43177 4.48677,2.5114 6.74617,3.73808 2.03861,0.91395 4.13614,1.6955 6.24892,2.43747 1.263375,0.42216 2.538845,0.81245 3.851385,1.07163 0.46081,0.091 0.92136,0.19614 1.39028,0.23411 1.49229,0.12087 2.55328,-0.0171 4.06106,-0.1231 3.9178,-0.38793 7.76429,-1.19603 11.59297,-2.05076 0,0 -3.03588,-2.00451 -3.03588,-2.00451 v 0 c -3.81507,0.85059 -7.65079,1.65137 -11.55884,2.00306 -1.66331,0.092 -2.40877,0.20527 -4.02693,0.0383 -1.791525,-0.18482 -3.505835,-0.83046 -5.204845,-1.356 -2.10897,-0.74928 -4.21141,-1.53029 -6.22575,-2.49186 -0.81159,-0.43159 -0.51782,-0.28161 -1.28329,-0.6664 -0.19578,-0.0985 -0.77788,-0.40336 -0.58823,-0.29439 5.00315,2.87462 2.59483,1.45404 1.51508,0.77191 -1.1064,-0.72098 -2.15833,-1.5152 -3.19581,-2.32253 -1.04843,-0.95763 -2.02356,-1.997138 -2.96526,-3.049938 z" />
    <path
       style="fill:#ffffff;fill-opacity:1;stroke-width:1.94846;stroke-dasharray:none"
       id="path19"
       d="m 129.98491,88.152581 c 0.92817,0.642354 1.74215,1.417514 2.63938,2.095892 0.44977,0.340049 0.95291,0.670108 1.4218,0.986004 2.27256,1.494251 4.63512,2.891759 7.15654,3.96974 1.73861,0.743281 3.53797,1.356746 5.37505,1.835881 1.44725,0.306888 2.9266,0.535292 4.4149,0.445693 1.23008,-0.07407 2.23703,-0.276882 3.45471,-0.479572 1.80363,-0.342455 3.58607,-0.775529 5.37389,-1.184218 0,0 -3.05083,-2.011603 -3.05083,-2.011603 v 0 c -1.77983,0.41062 -3.55534,0.843315 -5.35581,1.166395 -1.28428,0.199127 -2.13916,0.373043 -3.42842,0.420105 -1.47457,0.05378 -2.93957,-0.199331 -4.36567,-0.527963 -1.82455,-0.507956 -3.61832,-1.121082 -5.34415,-1.884108 -1.1718,-0.532622 -3.86103,-1.98517 1.20557,0.783324 0.22093,0.120721 -0.43439,-0.253643 -0.64736,-0.386779 -0.44072,-0.275562 -0.86075,-0.580683 -1.31253,-0.84052 -0.20876,-0.138281 -1.24567,-0.822114 -1.43573,-0.960444 -0.9075,-0.660478 -1.69442,-1.457431 -2.62096,-2.095184 z" />
    <path
       style="fill:#ffffff;fill-opacity:1;stroke-width:1.94846;stroke-dasharray:none"
       id="path20"
       d="m 70.120395,76.140018 c 0.67306,-1.028379 1.37862,-2.036442 2.0506,-3.06543 0.8619,-1.483082 2.0089,-2.769457 3.22993,-3.989857 1.33064,-1.263873 2.65413,-2.529448 4.09269,-3.682988 1.81394,-1.437079 3.71729,-2.767448 5.65293,-4.050368 2.1416,-1.3595 4.31449,-2.666237 6.55645,-3.869866 2.96676,-1.512966 6.06672,-2.760213 9.107775,-4.126087 2.82506,-1.283556 5.69846,-2.465832 8.56191,-3.668225 0,0 -1.84355,-1.169584 -1.84355,-1.169584 v 0 c -2.86355,1.206849 -5.73885,2.389575 -8.567295,3.670694 -3.05182,1.359933 -6.15949,2.608668 -9.1289,4.131859 -2.24557,1.209979 -4.42609,2.517419 -6.56942,3.885722 -1.94085,1.287518 -3.84932,2.622964 -5.6686,4.064358 -1.44147,1.162082 -2.77278,2.431435 -4.10882,3.701214 -1.22581,1.234772 -2.38122,2.534269 -3.254,4.026641 -0.67493,1.031607 -1.38406,2.041898 -2.06358,3.070778 z" />
    <path
       style="fill:#ffffff;fill-opacity:1;stroke-width:1.94846;stroke-dasharray:none"
       id="path21"
       d="m 100.01701,58.060514 c -1.595475,0.795964 -2.950505,1.951711 -4.190565,3.182034 -1.19716,1.156028 -2.0987,2.504474 -2.80889,3.972166 -0.61613,1.499724 -1.27846,2.985679 -1.78483,4.523472 -0.4824,1.434133 -0.73723,2.911683 -0.86908,4.408341 -0.15454,1.716709 -0.10515,3.434352 0.13206,5.140252 0.43872,1.8482 1.11831,3.619275 1.92134,5.347172 0.52413,1.282515 1.29887,2.421953 2.23588,3.459318 0.72286,0.742553 1.60801,1.306132 2.51871,1.816719 2.65015,1.485767 2.10646,1.195906 3.918975,2.110609 1.80603,0.849606 3.66852,1.686301 5.62158,2.18852 0.36942,0.09503 0.74676,0.159327 1.12012,0.238966 2.48691,0.385177 5.01779,0.467059 7.53327,0.426569 2.58279,-0.142038 5.14217,-0.570044 7.68116,-1.02823 1.81901,-0.444334 3.40529,-1.374065 4.99832,-2.280313 0,0 -1.86446,-1.152232 -1.86446,-1.152232 v 0 c -1.58004,0.890309 -3.15274,1.801508 -4.96107,2.214565 -2.53353,0.448556 -5.08654,0.874709 -7.66386,0.995284 -2.50607,0.02737 -5.02944,-0.04902 -7.50184,-0.468554 -2.3378,-0.534923 -4.58055,-1.398964 -6.705275,-2.471227 -0.34243,-0.175315 -0.6388,-0.515848 -1.02726,-0.525954 -0.36224,-0.0097 0.59962,0.401011 0.93845,0.523643 0.3027,0.109567 -0.55482,-0.318692 -0.82845,-0.483833 -0.61562,-0.37151 -1.19945,-0.769773 -1.70753,-1.271856 -0.95727,-1.006865 -1.74638,-2.131033 -2.27066,-3.402481 -0.0932,-0.199486 -0.68574,-1.459673 -0.77191,-1.670662 -0.48091,-1.177753 -0.81168,-2.407732 -1.17465,-3.620955 -0.24813,-1.691126 -0.30742,-3.395269 -0.15534,-5.099124 0.12706,-1.481808 0.37187,-2.945139 0.84965,-4.365044 0.496,-1.531513 1.15586,-3.009032 1.76732,-4.500773 0.70045,-1.445872 1.58989,-2.77227 2.76931,-3.911503 1.22233,-1.207403 2.559245,-2.351715 4.149805,-3.099275 z" />
    <path
       style="fill:#ffffff;fill-opacity:1;stroke-width:1.94846;stroke-dasharray:none"
       id="path22"
       d="m 128.02711,91.812743 c 0.93622,-0.697715 1.85995,-1.415475 2.85261,-2.040056 0,0 -1.89333,-1.156552 -1.89333,-1.156552 v 0 c -0.98565,0.635132 -1.90896,1.352233 -2.85528,2.03829 z" />
    <path
       style="fill:#ffffff;fill-opacity:1;stroke-width:1.94846;stroke-dasharray:none"
       id="path23"
       d="m 129.65541,90.77699 c 0.59379,-0.395468 0.28704,-0.197807 0.92116,-0.591741 0,0 -1.89102,-1.157716 -1.89102,-1.157716 v 0 c -0.63738,0.398185 -0.32891,0.200825 -0.92613,0.591148 z" />
    <path
       style="fill:#ffffff;fill-opacity:1;stroke-width:1.94846;stroke-dasharray:none"
       id="path24"
       d="m 107.34325,48.009871 c -0.28335,1.170771 -0.6531,2.315284 -1.08656,3.442642 -0.39539,0.910001 -0.81497,1.809013 -1.15966,2.73849 -0.37874,1.02458 -0.68336,2.071948 -1.06748,3.094547 -0.3949,1.207449 -0.63883,2.454876 -0.86017,3.700188 -0.27401,1.509741 -0.49636,3.030457 -0.53877,4.563308 0.26996,1.941314 0.84836,3.85834 1.68547,5.645875 0.75028,1.443544 1.88624,2.614936 3.12313,3.68846 2.72271,2.040573 5.90432,3.332368 9.06143,4.595535 2.42828,0.929905 4.90446,1.755418 7.42713,2.418827 1.67093,0.403262 3.3647,0.706685 5.06504,0.970093 0,0 -3.57877,-2.567125 -3.57877,-2.567125 v 0 c -1.68646,-0.269224 -3.36761,-0.574131 -5.02015,-0.998138 -2.51169,-0.699754 -4.99225,-1.510094 -7.40826,-2.470955 -0.91573,-0.370209 -1.84143,-0.72841 -2.74163,-1.132244 -0.30277,-0.135813 -1.18172,-0.596684 -0.89831,-0.427104 0.73056,0.437084 4.58061,2.613186 2.24649,1.223823 -1.24827,-1.021626 -2.39788,-2.142001 -3.19684,-3.52949 -0.89316,-1.711598 -1.41306,-3.590611 -1.76809,-5.467037 0.008,-1.513945 0.2351,-3.017284 0.50575,-4.506929 0.21289,-1.220886 0.45564,-2.442297 0.82869,-3.628993 0.38833,-1.022629 0.68715,-2.072878 1.07345,-3.096412 0.33521,-0.930605 0.75406,-1.827871 1.14996,-2.735509 0.43894,-1.137622 0.81519,-2.291675 1.11361,-3.470537 z" />
    <path
       style="fill:#ffffff;fill-opacity:1;stroke-width:1.94846;stroke-dasharray:none"
       id="path25"
       d="m 129.84479,56.021471 c -0.5191,1.371595 -0.85786,2.799506 -1.18794,4.221416 -0.31321,1.359924 -0.34573,2.733199 -0.16591,4.109049 0.20093,1.547021 0.67756,3.040644 1.16626,4.522384 0.61369,1.634525 1.56218,3.126748 2.67981,4.488837 0.90177,1.123475 1.98545,2.046417 3.17453,2.879089 1.97103,1.237803 1.29368,0.830259 5.202,2.893526 0.45765,0.241606 1.12855,0.452604 1.62868,0.573373 0.75177,0.181528 1.21425,0.221939 1.98595,0.32473 1.35821,0.124788 0.68768,0.07281 2.01141,0.157686 0,0 -3.60381,-2.536664 -3.60381,-2.536664 v 0 c -1.30953,-0.09817 -0.64666,-0.03747 -1.98841,-0.183944 -0.95613,-0.153716 -1.87506,-0.314246 -2.77472,-0.67435 -0.25613,-0.102538 -0.9871,-0.48425 -0.75103,-0.344542 0.80668,0.477426 4.65173,2.617905 2.46219,1.365347 -0.57496,-0.391021 -1.19512,-0.769685 -1.71932,-1.223581 -0.54602,-0.472806 -0.993,-1.048612 -1.50231,-1.554566 -1.15959,-1.289008 -2.08594,-2.765775 -2.75188,-4.341837 -0.48891,-1.459878 -0.97684,-2.931671 -1.19601,-4.454659 -0.0861,-0.552468 -0.16133,-0.902541 -0.16889,-1.459298 -0.0119,-0.842052 0.12647,-1.686714 0.26717,-2.514711 0.31298,-1.404912 0.63987,-2.818155 1.1694,-4.16509 z" />
    <path
       style="fill:#ffffff;fill-opacity:1;stroke-width:1.94846;stroke-dasharray:none"
       id="path26"
       d="m 111.91354,73.550644 c 0.73564,-1.088179 1.44642,-2.193019 2.23235,-3.249375 0.8582,-1.171202 1.83247,-2.257913 2.8573,-3.29787 1.04794,-1.129122 2.2794,-2.063825 3.55337,-2.946295 1.61402,-1.103078 3.19143,-2.253674 4.80022,-3.363376 1.87009,-1.325886 3.93164,-2.371634 6.00055,-3.381605 0.26556,-0.114149 0.53112,-0.228309 0.79668,-0.342465 0,0 -1.86777,-1.181719 -1.86777,-1.181719 v 0 c -0.26674,0.117475 -0.53347,0.234937 -0.8002,0.352407 -2.07244,1.023836 -4.14153,2.075023 -6.01729,3.409574 -1.60924,1.110253 -3.18945,2.258348 -4.80428,3.361415 -1.28505,0.890332 -2.51942,1.841584 -3.57644,2.980044 -1.03156,1.047366 -2.01208,2.142202 -2.875,3.322197 -0.7886,1.064221 -1.50471,2.175116 -2.25136,3.265932 z" />
    <ellipse
       id="path27"
       style="fill:#ffffff;stroke:#000000;stroke-width:1.9454"
       cx="155.01088"
       cy="51.025253"
       rx="0.010262916"
       ry="0.0097922049" />
    <path
       style="fill:#ffffff;fill-opacity:1;stroke-width:1.94846;stroke-dasharray:none"
       id="path28"
       d="m 71.788015,40.750217 c -1.04898,0.399955 -1.95644,1.047282 -2.93361,1.573249 -0.50485,0.287967 -1.04289,0.515559 -1.56473,0.772958 0,0 1.8809,1.178072 1.8809,1.178072 v 0 c 0.52571,-0.255652 1.06267,-0.491393 1.56894,-0.781975 0.9678,-0.535582 1.88406,-1.161704 2.92905,-1.561705 z" />
    <path
       style="fill:#ffffff;fill-opacity:1;stroke-width:1.94846;stroke-dasharray:none"
       id="path31"
       d="m 79.444565,99.101335 c 0.87382,-0.418619 1.7492,-0.840432 2.67884,-1.134739 0.3218,-0.09849 0.65485,-0.144038 0.98845,-0.185449 0,0 -1.84102,-1.237628 -1.84102,-1.237628 v 0 c -0.34156,0.05291 -0.68231,0.110508 -1.01057,0.219201 -0.93323,0.315411 -1.81999,0.739146 -2.7021,1.165532 z" />
    <path
       style="fill:#ffffff;fill-opacity:1;stroke-width:1.94846;stroke-dasharray:none"
       id="path35"
       d="m 48.752305,102.04684 c 1.03805,0.36711 2.09257,0.68885 3.13214,1.05197 1.02633,0.30913 2.03931,0.64815 3.06413,0.96183 0.93437,0.25059 1.86255,0.53448 2.80867,0.74259 0.77773,0.12657 1.55085,0.27334 2.33541,0.3583 0.78332,0.13773 1.56893,0.25771 2.36352,0.3139 1.10543,0.0812 2.20905,0.002 3.30765,-0.11684 1.22822,-0.18129 2.44067,-0.44462 3.66315,-0.65709 0,0 -1.84097,-1.22778 -1.84097,-1.22778 v 0 c -1.21669,0.21781 -2.4251,0.4818 -3.6518,0.64492 -1.09297,0.1063 -2.19076,0.17477 -3.28823,0.0799 -0.79148,-0.0695 -1.57327,-0.19912 -2.35754,-0.31993 -0.77803,-0.0966 -1.55,-0.23435 -2.31965,-0.3782 -0.93915,-0.22714 -1.87077,-0.48662 -2.79813,-0.7536 -1.02573,-0.30565 -2.03173,-0.66134 -3.05725,-0.9678 -1.04259,-0.35609 -2.09675,-0.68155 -3.13085,-1.06004 z" />
    <path
       style="fill:#ffffff;fill-opacity:1;stroke-width:1.94846;stroke-dasharray:none"
       id="path36"
       d="m 50.795185,102.9825 c -1.0878,-1.19635 -2.50602,-1.82374 -3.94285,-2.61289 0,0 1.75003,1.34647 1.75003,1.34647 v 0 c -3.19239,-1.801023 -0.41531,-0.28463 0.1185,0.43115 z" />
    <path
       style="fill:#ffffff;fill-opacity:1;stroke-width:1.94846;stroke-dasharray:none"
       id="path38"
       d="m 129.11267,90.77699 c 0.82395,-0.521673 1.71829,-0.917305 2.67084,-1.165639 0.60864,-0.176576 1.1633,-0.113032 1.74246,0.09874 0.75025,0.492201 0.1179,0.07038 -1.55765,-0.835434 -0.0672,-0.0363 0.13005,0.07902 0.19437,0.119575 0.24491,0.154687 0.46287,0.313625 0.67568,0.506646 0.19697,0.195972 0.3997,0.386391 0.60186,0.577373 0,0 2.0815,0.821222 2.0815,0.821222 v 0 c -0.20202,-0.189973 -0.40454,-0.37947 -0.60418,-0.571724 -0.82372,-0.899861 -2.14171,-1.354494 -3.16915,-1.938944 -0.6073,-0.182081 -1.21009,-0.168578 -1.82159,0.0097 -0.96365,0.276106 -1.87028,0.689406 -2.71008,1.220339 z" />
    <ellipse
       id="path39"
       style="fill:#ffffff;stroke:#000000;stroke-width:0.78169"
       cx="-25.208452"
       cy="93.820755"
       rx="0.0040844558"
       ry="0.0039725322" />
    <ellipse
       style="fill:#5987b1;fill-opacity:1;stroke-width:2.66454;stroke-dasharray:none"
       id="path40"
       cx="87.57196"
       cy="74.45903"
       rx="72.866615"
       ry="70.04245" />
    <use
       x="0"
       y="0"
       xlink:href="#path14"
       id="use40"
       style="fill:#ffffff" />
    <use
       x="0"
       y="0"
       xlink:href="#path15"
       id="use41"
       style="fill:#ffffff" />
    <use
       x="0"
       y="0"
       xlink:href="#path16"
       id="use42"
       style="fill:#ffffff" />
    <use
       x="0"
       y="0"
       xlink:href="#path17"
       id="use43"
       style="fill:#ffffff" />
    <use
       x="0"
       y="0"
       xlink:href="#path18"
       id="use44"
       style="fill:#ffffff" />
    <use
       x="0"
       y="0"
       xlink:href="#path19"
       id="use45"
       style="fill:#ffffff" />
    <use
       x="0"
       y="0"
       xlink:href="#path20"
       id="use46"
       style="fill:#ffffff" />
    <use
       x="0"
       y="0"
       xlink:href="#path21"
       id="use47"
       style="fill:#ffffff" />
    <use
       x="0"
       y="0"
       xlink:href="#path22"
       id="use48"
       style="fill:#ffffff" />
    <use
       x="0"
       y="0"
       xlink:href="#path23"
       id="use49"
       style="fill:#ffffff" />
    <use
       x="0"
       y="0"
       xlink:href="#path24"
       id="use50"
       style="fill:#ffffff" />
    <use
       x="0"
       y="0"
       xlink:href="#path25"
       id="use51"
       style="fill:#ffffff" />
    <use
       x="0"
       y="0"
       xlink:href="#path26"
       id="use52"
       style="fill:#ffffff" />
    <use
       x="0"
       y="0"
       xlink:href="#path27"
       id="use53"
       style="fill:#ffffff" />
    <use
       x="0"
       y="0"
       xlink:href="#path28"
       id="use54"
       style="fill:#ffffff" />
    <use
       x="0"
       y="0"
       xlink:href="#path31"
       id="use55"
       style="fill:#ffffff" />
    <use
       x="0"
       y="0"
       xlink:href="#path35"
       id="use56"
       style="fill:#ffffff" />
    <use
       x="0"
       y="0"
       xlink:href="#path36"
       id="use57"
       style="fill:#ffffff" />
    <use
       x="0"
       y="0"
       xlink:href="#path38"
       id="use58"
       style="fill:#ffffff" />
    <use
       x="0"
       y="0"
       xlink:href="#path39"
       id="use59"
       style="fill:#ffffff" />
    <text
       xml:space="preserve"
       style="font-size:36.2676px;fill:#ffffff;fill-opacity:1;stroke-width:3.02705;stroke-dasharray:none"
       x="3.8344581"
       y="169.85895"
       id="text59"
       transform="scale(0.96705804,1.0340641)"><tspan
         sodipodi:role="line"
         id="tspan59"
         x="3.8344581"
         y="169.85895"
         style="fill:#ffffff;stroke-width:3.02705">AU Agency</tspan></text>
  </g>
</svg>
